<?xml version="1.0" encoding="utf-8"?>
<!-- Generator: Adobe Illustrator 24.0.1, SVG Export Plug-In . SVG Version: 6.00 Build 0)  -->
<svg version="1.1" id="Layer_1" xmlns="http://www.w3.org/2000/svg" xmlns:xlink="http://www.w3.org/1999/xlink" x="0px" y="0px"
	 viewBox="0 0 100 74" style="enable-background:new 0 0 100 74;" xml:space="preserve">
<style type="text/css">
	.st0{fill:none;stroke:#382600;stroke-width:1;stroke-miterlimit:10;}
	.st1{fill:#D69B00;stroke:#382600;stroke-width:1;stroke-linejoin:round;stroke-miterlimit:10;}
	.st2{fill:#C64A00;stroke:#382600;stroke-width:1;stroke-linejoin:round;stroke-miterlimit:10;}
</style>
<g>
	<path class="st0" d="M50.1,61.5c-4.8,5.6-12.2,9.2-20.4,9.2c-14.5,0-26.2-11-26.2-24.7c0-8.7,4.8-16.4,12.1-20.8"/>
	<path class="st1" d="M31.4,20.6l7-2.5c-0.7-3.2-2.2-6.2-4.2-8.6l-7.8,4.2c0,0,2.8-4.8,4.5-7.4c-2.7-2-6-3.4-9.6-3.8l-2.2,6.5
		c0,0-0.8-3.6-1.4-6.6c-3.2,0.2-6.3,1.2-8.9,2.8c8,7.1,6.7,19.9,6.7,19.9c11.4-1,18.4,3.2,21.4,5.7c1.2-2.5,1.9-5.3,2-8.2
		c0-0.2,0-0.4,0-0.5C35.7,21.5,31.4,20.6,31.4,20.6z"/>
	<path class="st1" d="M32.7,48.4l5.4,0.4c0.5-2.3,0.4-4.7-0.3-7l-6.4,0.5c0,0,3.3-2.3,5.1-3.6c-1.2-2.1-3-4-5.2-5.3L28,37.1
		c0,0,0.5-2.6,1-4.8c-2.2-0.8-4.5-1-6.7-0.8c3.2,7.1-1.4,15.2-1.4,15.2c7.9,2.7,11.3,7.5,12.5,10.1c1.5-1.3,2.8-2.9,3.7-4.9
		c0.1-0.1,0.1-0.2,0.2-0.4C35.4,50.3,32.7,48.4,32.7,48.4z"/>
	<path class="st0" d="M29.7,70.7c-7.5,0-13.6-6.1-13.6-13.6c0-4.2,1.9-7.9,4.8-10.4"/>
	<path class="st0" d="M50.1,61.5c4.8,5.6,12.2,9.2,20.4,9.2c14.5,0,26.2-11,26.2-24.7c0-8.7-4.8-16.4-12.1-20.8"/>
	<path class="st1" d="M68.8,20.6l-7-2.5c0.7-3.2,2.2-6.2,4.2-8.6l7.8,4.2c0,0-2.8-4.8-4.5-7.4c2.7-2,6-3.4,9.6-3.8l2.2,6.5
		c0,0,0.8-3.6,1.4-6.6c3.2,0.2,6.3,1.2,8.9,2.8c-8,7.1-6.7,19.9-6.7,19.9c-11.4-1-18.4,3.2-21.4,5.7c-1.2-2.5-1.9-5.3-2-8.2
		c0-0.2,0-0.4,0-0.5C64.5,21.5,68.8,20.6,68.8,20.6z"/>
	<path class="st1" d="M67.4,48.4L62,48.8c-0.5-2.3-0.4-4.7,0.3-7l6.4,0.5c0,0-3.3-2.3-5.1-3.6c1.2-2.1,3-4,5.2-5.3l3.4,3.7
		c0,0-0.5-2.6-1-4.8c2.2-0.8,4.5-1,6.7-0.8c-3.2,7.1,1.4,15.2,1.4,15.2c-7.9,2.7-11.3,7.5-12.5,10.1c-1.5-1.3-2.8-2.9-3.7-4.9
		c-0.1-0.1-0.1-0.2-0.2-0.4C64.8,50.3,67.4,48.4,67.4,48.4z"/>
	<path class="st0" d="M70.5,70.7c7.5,0,13.6-6.1,13.6-13.6c0-4.2-1.9-7.9-4.8-10.4"/>
	<path class="st2" d="M55.2,7.2h-5.1H45l-3.3,0.6c6.6,2.2,8.4,5.2,8.4,5.2s1.8-3,8.4-5.2L55.2,7.2z"/>
	<line class="st0" x1="50.1" y1="13" x2="50.1" y2="61.5"/>
</g>
</svg>
