<?xml version="1.0" encoding="utf-8"?>
<!-- Generator: Adobe Illustrator 24.0.1, SVG Export Plug-In . SVG Version: 6.00 Build 0)  -->
<svg version="1.1" id="Layer_1" xmlns="http://www.w3.org/2000/svg" xmlns:xlink="http://www.w3.org/1999/xlink" x="0px" y="0px"
	 viewBox="0 0 92.5 196.1" style="enable-background:new 0 0 92.5 196.1;" xml:space="preserve">
<style type="text/css">
	.st0{fill:none;stroke:#B9B29F;stroke-width:2;stroke-miterlimit:10;}
	.st1{fill:none;stroke:#B9B29F;stroke-width:3;stroke-miterlimit:10;}
</style>
<g>
	<line class="st0" x1="91.2" y1="171.9" x2="1.4" y2="171.9"/>
	<line class="st0" x1="91.3" y1="165.7" x2="1.5" y2="165.7"/>
	<path class="st0" d="M15.3,160.8"/>
	<path class="st0" d="M46.8,129.3"/>
	<path class="st0" d="M61.7,35.2"/>
	<path class="st0" d="M31.7,35.2"/>
	<path class="st0" d="M31.8,0.7"/>
	<path class="st0" d="M60.7,1.5"/>
	<path class="st0" d="M46.7,1.8"/>
	<path class="st0" d="M46.7,6.8"/>
	<path class="st0" d="M1.5,26"/>
	<line class="st0" x1="28.7" y1="52.4" x2="61.5" y2="52.4"/>
	<line class="st0" x1="38.9" y1="113" x2="1.3" y2="113"/>
	<line class="st0" x1="91.2" y1="113" x2="53.3" y2="113"/>
	<line class="st0" x1="38.8" y1="138.9" x2="53.3" y2="138.9"/>
	<polyline class="st0" points="11,1.3 11,73 31.6,73 	"/>
	<polyline class="st0" points="81.1,1.2 81.1,73 60.4,73 	"/>
	<line class="st0" x1="31.6" y1="52.6" x2="31.6" y2="113"/>
	<line class="st0" x1="60.5" y1="51.8" x2="60.5" y2="113"/>
	<polyline class="st0" points="38.8,52.3 38.8,145.5 53.3,145.5 53.3,52.5 	"/>
	<line class="st0" x1="60.5" y1="25.9" x2="60.5" y2="32.2"/>
	<line class="st0" x1="31.2" y1="26" x2="31.2" y2="32.2"/>
	<g>
		<polyline class="st0" points="46,23.2 31.4,32.2 1.3,32.2 		"/>
		<polyline class="st0" points="46,23.2 60.6,32.2 91.2,32.2 		"/>
	</g>
	<g>
		<polyline class="st0" points="46,17 31.4,26 1.4,26 		"/>
		<polyline class="st0" points="46,17 60.6,26 91.2,26 		"/>
	</g>
	<line class="st0" x1="60.5" y1="46.1" x2="60.5" y2="52.4"/>
	<line class="st0" x1="31.6" y1="46.1" x2="31.6" y2="52.4"/>
	<g>
		<polyline class="st0" points="46,43.3 31.4,52.4 1.3,52.4 		"/>
		<polyline class="st0" points="46,43.3 60.6,52.4 91.1,52.4 		"/>
	</g>
	<g>
		<polyline class="st0" points="46,37.2 31.4,46.2 1.4,46.2 		"/>
		<polyline class="st0" points="46,37.2 60.6,46.2 91.1,46.2 		"/>
	</g>
	<g>
		<line class="st0" x1="31.9" y1="171.8" x2="31.9" y2="194.9"/>
		<line class="st0" x1="60.6" y1="171.9" x2="60.6" y2="195"/>
	</g>
	<line class="st0" x1="31.9" y1="188.3" x2="60.9" y2="188.3"/>
	<g>
		<polyline class="st0" points="52.9,171.8 46.3,178.4 39.6,171.8 		"/>
		<g>
			<g>
				<line class="st0" x1="46.3" y1="1.3" x2="46.3" y2="194.9"/>
				<rect x="1.3" y="1.2" class="st1" width="89.8" height="193.7"/>
			</g>
			<g>
				<line class="st0" x1="39.2" y1="172" x2="39.2" y2="194.8"/>
				<line class="st0" x1="53.3" y1="172" x2="53.3" y2="194.8"/>
			</g>
		</g>
	</g>
</g>
</svg>
