<?xml version="1.0" encoding="utf-8"?>
<!-- Generator: Adobe Illustrator 24.0.1, SVG Export Plug-In . SVG Version: 6.00 Build 0)  -->
<svg version="1.1" id="Layer_1" xmlns="http://www.w3.org/2000/svg" xmlns:xlink="http://www.w3.org/1999/xlink" x="0px" y="0px"
	 viewBox="0 0 92.5 196.1" style="enable-background:new 0 0 92.5 196.1;" xml:space="preserve">
<style type="text/css">
	.st0{fill:none;stroke:#B9B29F;stroke-width:2;stroke-miterlimit:10;}
	.st1{fill:none;stroke:#B9B29F;stroke-width:3;stroke-miterlimit:10;}
</style>
<g>
	<line class="st0" x1="90" y1="64.6" x2="0.8" y2="64.6"/>
	<line class="st0" x1="90.8" y1="125.2" x2="1.7" y2="125.2"/>
	<line class="st0" x1="90.4" y1="7.8" x2="1.3" y2="7.8"/>
	<line class="st0" x1="90.4" y1="188.2" x2="1.3" y2="188.2"/>
	<path class="st0" d="M15.1,160.3"/>
	<path class="st0" d="M46.3,129.1"/>
	<line class="st0" x1="31.3" y1="35.6" x2="61.1" y2="35.6"/>
	<line class="st0" x1="66.2" y1="155.9" x2="84.9" y2="155.9"/>
	<line class="st0" x1="7.7" y1="155.9" x2="26" y2="155.9"/>
	<g>
		<g>
			<g>
				<line class="st0" x1="7.6" y1="1" x2="7.6" y2="193.3"/>
			</g>
			<g>
				<line class="st0" x1="84.9" y1="2.7" x2="84.9" y2="194.9"/>
			</g>
		</g>
		<g>
			<g>
				<g>
					<line class="st0" x1="7.6" y1="64.7" x2="42" y2="174.3"/>
					<line class="st0" x1="28.4" y1="7.8" x2="44.8" y2="173.9"/>
					<line class="st0" x1="7.4" y1="125.2" x2="38.2" y2="175.4"/>
					<line class="st0" x1="7.4" y1="155.4" x2="33.5" y2="177.7"/>
				</g>
				<g>
					<line class="st0" x1="84.9" y1="64.7" x2="50.6" y2="174.3"/>
					<line class="st0" x1="64.1" y1="7.8" x2="47.7" y2="174"/>
					<line class="st0" x1="85.1" y1="125.2" x2="54.3" y2="175.3"/>
					<line class="st0" x1="85.1" y1="155.4" x2="59" y2="177.7"/>
				</g>
			</g>
			<g>
				<rect x="1.7" y="1.9" class="st1" width="89.2" height="192.2"/>
				<g>
					<path class="st0" d="M24.7,188.1c3.7-8.3,11.9-14,21.5-14c9.6,0,17.9,5.8,21.6,14.1"/>
					<path class="st0" d="M30.2,188.2c3.2-5.5,9.2-9.2,16.1-9.2c6.8,0,12.8,3.7,16.1,9.2"/>
				</g>
				<line class="st0" x1="46.3" y1="193.7" x2="46.3" y2="188.7"/>
				<line class="st0" x1="46.3" y1="179" x2="46.3" y2="174"/>
			</g>
		</g>
	</g>
	<line class="st0" x1="46.2" y1="7.5" x2="46.2" y2="2.5"/>
</g>
</svg>
