<?xml version="1.0" encoding="utf-8"?>
<!-- Generator: Adobe Illustrator 24.0.1, SVG Export Plug-In . SVG Version: 6.00 Build 0)  -->
<svg version="1.1" id="Layer_1" xmlns="http://www.w3.org/2000/svg" xmlns:xlink="http://www.w3.org/1999/xlink" x="0px" y="0px"
	 viewBox="0 0 92.5 196.1" style="enable-background:new 0 0 92.5 196.1;" xml:space="preserve">
<style type="text/css">
	.st0{fill:none;stroke:#B9B29F;stroke-width:2;stroke-miterlimit:10;}
	.st1{fill:none;stroke:#B9B29F;stroke-width:3;stroke-miterlimit:10;}
</style>
<g>
	<line class="st0" x1="91.2" y1="112" x2="1.5" y2="112"/>
	<rect x="1.4" y="1.4" class="st1" width="89.7" height="193.3"/>
	<line class="st0" x1="46.2" y1="1" x2="46.2" y2="194.3"/>
	<g>
		<line class="st0" x1="77.5" y1="1" x2="77.5" y2="194.3"/>
		<line class="st0" x1="14.9" y1="1.4" x2="14.9" y2="194.8"/>
	</g>
	<g>
		<line class="st0" x1="56.3" y1="1.4" x2="56.3" y2="194.7"/>
		<line class="st0" x1="36.1" y1="0.6" x2="36.1" y2="193.9"/>
	</g>
	<g>
		<line class="st0" x1="90.8" y1="13.9" x2="1.2" y2="13.9"/>
		<line class="st0" x1="90.8" y1="180.9" x2="1.2" y2="180.9"/>
	</g>
	<g>
		<line class="st0" x1="46.3" y1="129.3" x2="14.9" y2="160.7"/>
		<line class="st0" x1="46" y1="129.3" x2="77.3" y2="160.6"/>
	</g>
	<g>
		<g>
			<line class="st0" x1="46.4" y1="106.7" x2="15" y2="75.3"/>
			<line class="st0" x1="46.1" y1="106.7" x2="77.4" y2="75.4"/>
		</g>
		<g>
			<line class="st0" x1="46.4" y1="96.4" x2="35.9" y2="86"/>
			<line class="st0" x1="46.1" y1="96.4" x2="56.2" y2="86.4"/>
		</g>
		<g>
			<line class="st0" x1="46.4" y1="86.2" x2="15" y2="54.8"/>
			<line class="st0" x1="46.1" y1="86.2" x2="77.4" y2="54.9"/>
		</g>
		<g>
			<line class="st0" x1="46.4" y1="76" x2="36.1" y2="65.7"/>
			<line class="st0" x1="46.1" y1="76" x2="56.2" y2="65.9"/>
		</g>
		<g>
			<line class="st0" x1="46.4" y1="65.8" x2="15" y2="34.4"/>
			<line class="st0" x1="46.1" y1="65.8" x2="77.4" y2="34.5"/>
		</g>
		<g>
			<line class="st0" x1="46.4" y1="55.5" x2="36.2" y2="45.4"/>
			<line class="st0" x1="46.1" y1="55.5" x2="56.1" y2="45.6"/>
		</g>
		<g>
			<line class="st0" x1="46.4" y1="45.3" x2="15" y2="13.9"/>
			<line class="st0" x1="46.1" y1="45.3" x2="77.4" y2="14"/>
		</g>
		<g>
			<line class="st0" x1="46.4" y1="35.1" x2="36.2" y2="24.9"/>
			<line class="st0" x1="46.1" y1="35.1" x2="56.2" y2="25.1"/>
		</g>
	</g>
	<g>
		<g>
			<line class="st0" x1="46.5" y1="180.5" x2="36.2" y2="170.1"/>
			<line class="st0" x1="46.3" y1="180.5" x2="56.2" y2="170.6"/>
		</g>
		<g>
			<line class="st0" x1="46.5" y1="170.3" x2="36.3" y2="160.1"/>
			<line class="st0" x1="46.3" y1="170.3" x2="56.4" y2="160.1"/>
		</g>
		<g>
			<line class="st0" x1="46.5" y1="160" x2="36.1" y2="149.6"/>
			<line class="st0" x1="46.3" y1="160" x2="56.2" y2="150.1"/>
		</g>
	</g>
	<g>
		<line class="st0" x1="71.2" y1="154.4" x2="77.8" y2="154.4"/>
		<line class="st0" x1="14.7" y1="154.4" x2="21.2" y2="154.4"/>
	</g>
	<g>
		<line class="st0" x1="71.2" y1="81.6" x2="77.8" y2="81.6"/>
		<line class="st0" x1="14.7" y1="81.6" x2="21.2" y2="81.6"/>
	</g>
	<g>
		<line class="st0" x1="71.2" y1="61" x2="77.8" y2="61"/>
		<line class="st0" x1="14.7" y1="61" x2="21.2" y2="61"/>
	</g>
	<g>
		<line class="st0" x1="71.2" y1="40.5" x2="77.8" y2="40.5"/>
		<line class="st0" x1="14.7" y1="40.5" x2="21.2" y2="40.5"/>
	</g>
	<g>
		<line class="st0" x1="71.6" y1="19.9" x2="77.8" y2="19.9"/>
		<line class="st0" x1="14.7" y1="19.9" x2="21.2" y2="19.9"/>
	</g>
</g>
</svg>
