<?xml version="1.0" encoding="utf-8"?>
<!-- Generator: Adobe Illustrator 24.0.1, SVG Export Plug-In . SVG Version: 6.00 Build 0)  -->
<svg version="1.1" id="Layer_1" xmlns="http://www.w3.org/2000/svg" xmlns:xlink="http://www.w3.org/1999/xlink" x="0px" y="0px"
	 viewBox="0 0 92.5 196.1" style="enable-background:new 0 0 92.5 196.1;" xml:space="preserve">
<style type="text/css">
	.st0{fill:none;stroke:#B9B29F;stroke-width:3;stroke-miterlimit:10;}
	.st1{fill:none;stroke:#B9B29F;stroke-width:2;stroke-miterlimit:10;}
</style>
<g>
	<g>
		<g>
			<rect x="1.5" y="1.5" class="st0" width="89.5" height="193.1"/>
			<line class="st1" x1="46.3" y1="1.1" x2="46.3" y2="194.2"/>
			<g>
				<line class="st1" x1="81.3" y1="1.1" x2="81.3" y2="194.2"/>
				<line class="st1" x1="11.2" y1="1.5" x2="11.2" y2="194.9"/>
			</g>
			<g>
				<line class="st1" x1="72.5" y1="1.5" x2="72.5" y2="194.6"/>
				<line class="st1" x1="20" y1="1.9" x2="20" y2="194.6"/>
				<polyline class="st1" points="31.6,38.5 31.6,97.8 46,108.4 				"/>
				<line class="st1" x1="31.6" y1="25.8" x2="31.6" y2="32"/>
			</g>
		</g>
		<g>
			<line class="st1" x1="90.8" y1="14.1" x2="1.3" y2="14.1"/>
			<g>
				<line class="st1" x1="91.3" y1="56.1" x2="1.7" y2="56.1"/>
				<line class="st1" x1="91" y1="97.8" x2="1.5" y2="97.8"/>
				<line class="st1" x1="91.3" y1="139.5" x2="1.7" y2="139.5"/>
			</g>
			<line class="st1" x1="90.8" y1="181.6" x2="1.3" y2="181.6"/>
		</g>
	</g>
	<g>
		<line class="st1" x1="91" y1="8.3" x2="1.5" y2="8.3"/>
		<line class="st1" x1="91" y1="187.8" x2="1.5" y2="187.8"/>
	</g>
	<polyline class="st1" points="60.9,38.6 60.9,97.8 46.5,108.4 	"/>
	<line class="st1" x1="60.9" y1="25.7" x2="60.9" y2="32.1"/>
	<line class="st1" x1="38.6" y1="22.7" x2="38.6" y2="98"/>
	<line class="st1" x1="53.4" y1="22.7" x2="53.4" y2="98"/>
	<g>
		<line class="st1" x1="20.1" y1="14.4" x2="46" y2="25.5"/>
		<line class="st1" x1="20.1" y1="20.7" x2="46" y2="31.9"/>
		<line class="st1" x1="20.1" y1="27.1" x2="46" y2="38.3"/>
		<line class="st1" x1="20.1" y1="33.6" x2="46" y2="44.6"/>
		<line class="st1" x1="20.1" y1="39.8" x2="46" y2="51"/>
	</g>
	<g>
		<line class="st1" x1="72.3" y1="14.4" x2="46.4" y2="25.5"/>
		<line class="st1" x1="72.3" y1="20.7" x2="46.4" y2="31.9"/>
		<line class="st1" x1="72.3" y1="27.1" x2="46.4" y2="38.3"/>
		<line class="st1" x1="72.3" y1="33.6" x2="46.4" y2="44.6"/>
		<line class="st1" x1="72.3" y1="39.8" x2="46.4" y2="51"/>
	</g>
	<line class="st1" x1="46.5" y1="14" x2="59.6" y2="19.8"/>
	<line class="st1" x1="32.8" y1="19.9" x2="45.9" y2="14.1"/>
	<line class="st1" x1="46.5" y1="97.8" x2="52.8" y2="103.7"/>
	<line class="st1" x1="46" y1="97.8" x2="39.6" y2="103.7"/>
	<line class="st1" x1="46.5" y1="164.8" x2="30" y2="181.6"/>
	<line class="st1" x1="46.1" y1="164.8" x2="62.6" y2="181.6"/>
	<line class="st1" x1="37.5" y1="174.1" x2="46.3" y2="181.6"/>
	<line class="st1" x1="55.1" y1="174.1" x2="46.3" y2="181.6"/>
</g>
</svg>
