<svg version="1.1" id="Layer_1" xmlns="http://www.w3.org/2000/svg" xmlns:xlink="http://www.w3.org/1999/xlink" x="0px" y="0px" viewBox="0 0 35 43" style="enable-background:new 0 0 35 43;" xml:space="preserve">
	<g>
		<g>
			<path fill="#467259" d="M7.2,34.2h2.1c2,0,3.1,1.1,3.1,2.7v0c0,1.6-1.2,2.7-3.1,2.7H7.2V34.2z M9.4,38.3c0.9,0,1.5-0.5,1.5-1.4v0
				c0-0.9-0.6-1.4-1.5-1.4H8.8v2.8H9.4z"/>
			<path fill="#467259" d="M14.7,37L14.7,37c0-1.6,1.3-2.8,3-2.8c1.7,0,3,1.2,3,2.8v0c0,1.6-1.3,2.8-3,2.8C15.9,39.8,14.7,38.5,14.7,37z M19,37
				L19,37c0-0.8-0.6-1.5-1.4-1.5c-0.8,0-1.4,0.7-1.4,1.4v0c0,0.8,0.6,1.5,1.4,1.5C18.5,38.4,19,37.7,19,37z"/>
			<path fill="#467259" d="M22.8,37L22.8,37c0-1.6,1.2-2.8,2.9-2.8c1.1,0,1.9,0.5,2.3,1.1l-1.2,0.9c-0.3-0.4-0.7-0.6-1.2-0.6c-0.8,0-1.3,0.6-1.3,1.4
				v0c0,0.8,0.5,1.4,1.3,1.4c0.6,0,0.9-0.3,1.2-0.7l1.2,0.8c-0.5,0.7-1.2,1.2-2.4,1.2C24.1,39.8,22.8,38.6,22.8,37z"/>
		</g>
		<path fill="#467259" d="M26.2,0H0v43h35l0-34.4L26.2,0z M25.4,1.9L33,9.4l0,21H2V1.9H25.4z M2,41.1v-8.7h31l0,8.7H2z"/>
		<g>
			<rect fill="#467259" x="5.7" y="7.8" width="9.9" height="2"/>
			<rect fill="#467259" x="5.7" y="12.1" width="23.7" height="2"/>
			<rect fill="#467259" x="5.7" y="16.6" width="23.7" height="2"/>
			<rect fill="#467259" x="5.7" y="21" width="23.7" height="2"/>
		</g>
	</g>
</svg>
