<svg class="icon-pdf" xmlns="http://www.w3.org/2000/svg" xmlns:xlink="http://www.w3.org/1999/xlink" x="0px" y="0px" viewBox="0 0 35 43" style="enable-background:new 0 0 35 43;" xml:space="preserve">
	<g>
		<g>
			<path fill="#467259" d="M7.7,34.2h2.4c1.4,0,2.3,0.7,2.3,1.9v0c0,1.3-1,2-2.4,2H9.2v1.6H7.7V34.2z M9.9,36.9c0.5,0,0.9-0.3,0.9-0.7v0
				c0-0.5-0.3-0.7-0.9-0.7H9.2v1.4H9.9z"/>
			<path fill="#467259" d="M14.6,34.2h2.1c2,0,3.1,1.1,3.1,2.7v0c0,1.6-1.2,2.7-3.1,2.7h-2.1V34.2z M16.7,38.3c0.9,0,1.5-0.5,1.5-1.4v0
				c0-0.9-0.6-1.4-1.5-1.4h-0.6v2.8H16.7z"/>
			<path fill="#467259" d="M22.2,34.2h4.4v1.3h-2.9v0.9h2.6v1.2h-2.6v1.9h-1.5V34.2z"/>
		</g>
		<g>
			<path fill="#467259" d="M7.6,26.8C7.6,26.8,7.6,26.8,7.6,26.8c1.2,0,2.3-1.3,3.3-3.7c0.1-0.2,0.2-0.5,0.3-1c2.6-1.2,6.3-1.7,9.2-1.8
				c1.3,1,2.5,1.8,3.6,2.4c2.4,1.3,3.7,0.8,4.2,0.3c0.6-0.5,0.9-1.4,0.6-2.2c-0.3-1-1.6-2.3-3.9-2.4c-0.4,0-1.9-0.1-3.8,0
				c-2.7-2.1-5.6-4.7-7.4-6.4c0.2-0.9,0.2-1.6,0.2-2c-0.2-2.4-1.4-3-2-3.1C10.9,6.7,10.1,7,9.6,7.8C9.1,8.6,9,10,10.2,11.4
				c0.1,0.1,0.6,0.6,1.2,1.2c-0.5,2.4-1.3,6-1.9,8.1c-0.3,0.2-0.6,0.4-0.9,0.6c-2.1,1.6-2.7,3.4-2.4,4.4C6.4,26.4,6.9,26.8,7.6,26.8z
				M24.7,20.3c1.4,0.1,1.9,0.7,2,0.9c0.1,0.2,0.1,0.4,0.2,0.4c-0.1,0.1-0.7,0.2-2-0.5c-0.4-0.2-0.8-0.5-1.2-0.7
				C24.2,20.3,24.6,20.3,24.7,20.3z M13.1,14.2c1.4,1.3,3.2,2.8,5,4.3c-2.1,0.2-4.3,0.6-6.3,1.3C12.2,18.1,12.7,16,13.1,14.2z
				M11.2,9c0-0.1,0.1-0.2,0.1-0.2c0.1,0.1,0.4,0.4,0.5,1.4v0c0,0,0,0.1,0,0.1c0,0,0,0,0,0C11.2,9.6,11.2,9.1,11.2,9z"/>
			<path fill="#467259" d="M26.2,0H0v43h35l0-34.4L26.2,0z M25.4,1.9L33,9.4l0,21H2V1.9H25.4z M2,41.1v-8.7h31l0,8.7H2z"/>
		</g>
	</g>
</svg>
