<?xml version="1.0" encoding="utf-8"?>
<!-- Generator: Adobe Illustrator 24.0.1, SVG Export Plug-In . SVG Version: 6.00 Build 0)  -->
<svg version="1.1" id="Layer_1" xmlns="http://www.w3.org/2000/svg" xmlns:xlink="http://www.w3.org/1999/xlink" x="0px" y="0px"
	 viewBox="0 0 150 36.3" style="enable-background:new 0 0 150 36.3;" xml:space="preserve">
<style type="text/css">
	.st0{fill:#467259;}
</style>
<g>
	<g>
		<polygon class="st0" points="3.3,11.1 3.3,20.2 0,20.2 0,3.3 10.8,12.8 10.8,3.7 14.2,3.7 14.2,20.6 		"/>
		<polygon class="st0" points="18.2,20.2 18.2,3.7 29.7,3.7 29.7,7 21.5,7 21.5,10.4 29.7,10.4 29.7,13.6 21.5,13.6 21.5,16.9 
			29.7,16.9 29.7,20.2 		"/>
		<polygon class="st0" points="32.3,3.7 36,3.7 40.9,13.3 46,3.4 51.1,13.3 56,3.7 59.8,3.7 51.1,20.6 46,10.6 40.9,20.6 		"/>
	</g>
	<g>
		<path class="st0" d="M100.7,20l-1.3-2.7l-7.1-0.1l-1.4,2.6l-3.7,0L96,3.1l8.4,16.9L100.7,20z M97.7,14.1l-1.8-3.7L94,14.1
			L97.7,14.1z"/>
		<polygon class="st0" points="100.5,3.6 104.2,3.6 109,13.2 114,3.7 117.7,3.7 108.9,20.5 		"/>
		<polygon class="st0" points="120.2,20.2 120.3,3.8 131.8,3.9 131.7,7.1 123.6,7 123.6,10.4 131.7,10.5 131.7,13.7 123.5,13.6 
			123.5,17 131.6,17.1 131.6,20.3 		"/>
		<polygon class="st0" points="139.1,11.3 139,20.4 135.7,20.3 135.8,3.5 146.6,13.1 146.7,4 150,4 149.8,20.9 		"/>
	</g>
	<g>
		<g>
			<path class="st0" d="M83.8,6.8c0-0.2-0.2-0.4-0.4-0.4h-0.7c-0.1,0.9-0.1,2-0.2,3.2h1.3V6.8z"/>
			<path class="st0" d="M82.7,17.5h0.7c0.2,0,0.4-0.2,0.4-0.4v-2.8h-1.3C82.5,15.5,82.6,16.6,82.7,17.5z"/>
			<path class="st0" d="M84.9,10.6h-2.4v2.8h2.4c0.4,0,0.8-0.3,0.8-0.8v-1.3C85.6,10.9,85.3,10.6,84.9,10.6z"/>
		</g>
		<g>
			<path class="st0" d="M82.9,0h-6v23.9h6c0,0-1.2-3.5-1.2-12C81.7,3.5,82.9,0,82.9,0z"/>
			<path class="st0" d="M65,12c0,8.4-1.2,12-1.2,12h6V0h-6C63.8,0,65,3.5,65,12z"/>
			<path class="st0" d="M70.7,9.6v4.7H76V9.6H70.7z"/>
		</g>
		<g>
			<path class="st0" d="M62.8,6.8c0-0.2,0.2-0.4,0.4-0.4H64c0.1,0.9,0.1,2,0.2,3.2h-1.3V6.8z"/>
			<path class="st0" d="M64,17.5h-0.7c-0.2,0-0.4-0.2-0.4-0.4v-2.8h1.3C64.1,15.5,64.1,16.6,64,17.5z"/>
			<path class="st0" d="M61.8,10.6h2.4v2.8h-2.4c-0.4,0-0.8-0.3-0.8-0.8v-1.3C61,10.9,61.4,10.6,61.8,10.6z"/>
		</g>
	</g>
	<g>
		<path class="st0" d="M36.2,36.3c-1.3,0-2.3-1-2.3-2.3c0-1.3,1-2.3,2.4-2.3c0.8,0,1.3,0.3,1.8,0.7l-0.5,0.6
			c-0.4-0.3-0.8-0.6-1.3-0.6c-0.9,0-1.5,0.7-1.5,1.6c0,0.9,0.6,1.6,1.5,1.6c0.6,0,0.9-0.2,1.3-0.6l0.5,0.5
			C37.6,36,37.1,36.3,36.2,36.3z"/>
		<path class="st0" d="M44,34.3c0,1.3-0.8,2-2,2c-1.2,0-1.9-0.7-1.9-2v-2.6h0.8v2.5c0,0.8,0.4,1.3,1.2,1.3c0.7,0,1.1-0.4,1.1-1.2
			v-2.6H44V34.3z"/>
		<path class="st0" d="M48.2,33.6c1,0.2,1.5,0.6,1.5,1.3c0,0.8-0.7,1.3-1.6,1.3c-0.7,0-1.4-0.2-1.9-0.7l0.5-0.6
			c0.4,0.4,0.9,0.6,1.4,0.6c0.5,0,0.8-0.2,0.8-0.6c0-0.3-0.2-0.5-1-0.7c-1-0.2-1.5-0.5-1.5-1.3c0-0.8,0.7-1.3,1.6-1.3
			c0.7,0,1.2,0.2,1.7,0.6l-0.4,0.6c-0.4-0.3-0.8-0.5-1.2-0.5c-0.5,0-0.7,0.2-0.7,0.5C47.1,33.2,47.3,33.4,48.2,33.6z"/>
		<path class="st0" d="M53.7,36.2h-0.8v-3.7h-1.4v-0.7h3.7v0.7h-1.4V36.2z"/>
		<path class="st0" d="M59.3,36.3c-1.4,0-2.4-1-2.4-2.3c0-1.3,1-2.3,2.4-2.3c1.4,0,2.4,1,2.4,2.3C61.7,35.2,60.7,36.3,59.3,36.3z
			 M59.3,32.4c-0.9,0-1.5,0.7-1.5,1.6c0,0.9,0.6,1.6,1.6,1.6s1.5-0.7,1.5-1.6C60.8,33.1,60.2,32.4,59.3,32.4z"/>
		<path class="st0" d="M66.2,35.1L66.2,35.1L64.7,33v3.2h-0.8v-4.4h0.9l1.4,2.1l1.4-2.1h0.9v4.4h-0.8V33L66.2,35.1z"/>
		<path class="st0" d="M82.1,32.9c0,0.5-0.3,0.8-0.7,1c0.5,0.2,0.9,0.5,0.9,1.1c0,0.8-0.7,1.2-1.7,1.2h-2.1v-4.4h2
			C81.5,31.7,82.1,32.2,82.1,32.9z M81.3,33c0-0.4-0.3-0.6-0.8-0.6h-1.2v1.2h1.1C81,33.6,81.3,33.4,81.3,33z M81.6,34.9
			c0-0.4-0.3-0.6-0.9-0.6h-1.3v1.2h1.3C81.2,35.5,81.6,35.3,81.6,34.9z"/>
		<path class="st0" d="M88.4,34.3c0,1.3-0.8,2-2,2c-1.2,0-1.9-0.7-1.9-2v-2.6h0.8v2.5c0,0.8,0.4,1.3,1.2,1.3c0.7,0,1.1-0.4,1.1-1.2
			v-2.6h0.8V34.3z"/>
		<path class="st0" d="M91.7,31.7v4.4h-0.8v-4.4H91.7z"/>
		<path class="st0" d="M94.2,31.7H95v3.7h2.4v0.7h-3.2V31.7z"/>
		<path class="st0" d="M101.2,36.2h-1.7v-4.4h1.7c1.4,0,2.4,1,2.4,2.2C103.6,35.2,102.7,36.2,101.2,36.2z M101.2,32.4h-0.9v3h0.9
			c1,0,1.6-0.6,1.6-1.5C102.8,33.1,102.2,32.4,101.2,32.4z"/>
		<path class="st0" d="M109.3,32.4h-2.6v1.2h2.3v0.7h-2.3v1.2h2.6v0.7h-3.4v-4.4h3.4V32.4z"/>
		<path class="st0" d="M114.5,36.2l-1.1-1.5h-1v1.5h-0.8v-4.4h2c1,0,1.7,0.5,1.7,1.4c0,0.7-0.4,1.2-1.1,1.4l1.2,1.7H114.5z
			 M113.6,32.4h-1.2v1.5h1.2c0.6,0,0.9-0.3,0.9-0.7C114.5,32.7,114.1,32.4,113.6,32.4z"/>
	</g>
</g>
</svg>
