<?xml version="1.0" encoding="utf-8"?>
<!-- Generator: Adobe Illustrator 24.0.1, SVG Export Plug-In . SVG Version: 6.00 Build 0)  -->
<svg version="1.1" id="Layer_1" xmlns="http://www.w3.org/2000/svg" xmlns:xlink="http://www.w3.org/1999/xlink" x="0px" y="0px"
	 viewBox="0 0 73.7 82" style="enable-background:new 0 0 73.7 82;" xml:space="preserve">
<style type="text/css">
	.st0{fill:#FF603B;}
	.st1{fill:none;stroke:#63767C;stroke-width:2;stroke-miterlimit:10;}
</style>
<rect x="38.7" y="14.2" class="st0" width="0.8" height="0.1"/>
<g>
	<polygon class="st1" points="36.8,30.9 25.9,20 37,9.1 47.9,20 	"/>
	<g>
		<line class="st1" x1="1" y1="9.2" x2="72.7" y2="9.2"/>
		<line class="st1" x1="48.1" y1="20" x2="64.6" y2="20"/>
		<line class="st1" x1="9.2" y1="20" x2="25.7" y2="20"/>
		<line class="st1" x1="64.6" y1="41" x2="72.7" y2="41"/>
		<line class="st1" x1="1" y1="41" x2="9.2" y2="41"/>
		<line class="st1" x1="40.7" y1="62" x2="72.9" y2="62"/>
		<line class="st1" x1="9.2" y1="62" x2="33.2" y2="62"/>
		<line class="st1" x1="0.9" y1="72.8" x2="72.7" y2="72.8"/>
		<line class="st1" x1="9.2" y1="1" x2="9.2" y2="81"/>
		<line class="st1" x1="20.3" y1="20" x2="20.3" y2="62.1"/>
		<line class="st1" x1="53.4" y1="20" x2="53.4" y2="62.1"/>
		<line class="st1" x1="64.6" y1="1" x2="64.6" y2="81.1"/>
		<polyline class="st1" points="72.7,1 1,1 1,81 72.7,81 72.7,0.5 		"/>
		<line class="st1" x1="36.9" y1="65.7" x2="36.9" y2="80.7"/>
		<line class="st1" x1="36.9" y1="30.7" x2="36.9" y2="58.4"/>
		<line class="st1" x1="36.9" y1="16.8" x2="36.9" y2="23.4"/>
		<line class="st1" x1="36.9" y1="1" x2="36.9" y2="9.2"/>
		
			<rect x="34.1" y="59.3" transform="matrix(0.7071 0.7071 -0.7071 0.7071 54.6813 -7.8928)" class="st1" width="5.5" height="5.5"/>
		<polyline class="st1" points="41.2,13.1 36.9,17.5 32.5,13.1 		"/>
		<line class="st1" x1="29.1" y1="23.4" x2="44.4" y2="23.4"/>
		<line class="st1" x1="41.2" y1="13.7" x2="41.2" y2="23.3"/>
		<line class="st1" x1="32.5" y1="23.4" x2="32.5" y2="13.3"/>
	</g>
</g>
</svg>
