<?xml version="1.0" encoding="utf-8"?>
<!-- Generator: Adobe Illustrator 24.0.1, SVG Export Plug-In . SVG Version: 6.00 Build 0)  -->
<svg version="1.1" id="Layer_1" xmlns="http://www.w3.org/2000/svg" xmlns:xlink="http://www.w3.org/1999/xlink" x="0px" y="0px"
	 viewBox="0 0 91.2 194.2" style="enable-background:new 0 0 91.2 194.2;" xml:space="preserve">
<style type="text/css">
	.st0{fill:#FF603B;}
	.st1{fill:none;stroke:#3BC9F4;stroke-width:2;stroke-miterlimit:10;}
</style>
<rect x="47.5" y="59.1" class="st0" width="0.9" height="0.1"/>
<g>
	<line class="st1" x1="89.3" y1="63.7" x2="0.2" y2="63.7"/>
	<line class="st1" x1="90.2" y1="124.3" x2="1" y2="124.3"/>
	<line class="st1" x1="89.7" y1="6.9" x2="0.6" y2="6.9"/>
	<line class="st1" x1="89.7" y1="187.3" x2="0.6" y2="187.3"/>
	<path class="st1" d="M14.4,159.4"/>
	<path class="st1" d="M45.6,128.2"/>
	<line class="st1" x1="30.6" y1="34.7" x2="60.5" y2="34.7"/>
	<line class="st1" x1="65.6" y1="155" x2="84.2" y2="155"/>
	<line class="st1" x1="7.1" y1="155" x2="25.4" y2="155"/>
	<g>
		<g>
			<g>
				<line class="st1" x1="6.9" y1="0.1" x2="6.9" y2="192.4"/>
			</g>
			<g>
				<line class="st1" x1="84.2" y1="1.8" x2="84.2" y2="194"/>
			</g>
		</g>
		<g>
			<g>
				<g>
					<line class="st1" x1="6.9" y1="63.8" x2="41.3" y2="173.4"/>
					<line class="st1" x1="27.7" y1="6.9" x2="44.1" y2="173"/>
					<line class="st1" x1="6.8" y1="124.3" x2="37.5" y2="174.5"/>
					<line class="st1" x1="6.8" y1="154.5" x2="32.8" y2="176.8"/>
				</g>
				<g>
					<line class="st1" x1="84.2" y1="63.8" x2="49.9" y2="173.4"/>
					<line class="st1" x1="63.5" y1="6.9" x2="47.1" y2="173.1"/>
					<line class="st1" x1="84.4" y1="124.3" x2="53.7" y2="174.4"/>
					<line class="st1" x1="84.4" y1="154.5" x2="58.3" y2="176.8"/>
				</g>
			</g>
			<g>
				<rect x="1" y="1" class="st1" width="89.2" height="192.2"/>
				<g>
					<path class="st1" d="M24.1,187.2c3.7-8.3,11.9-14,21.5-14c9.6,0,17.9,5.8,21.6,14.1"/>
					<path class="st1" d="M29.5,187.2c3.2-5.5,9.2-9.2,16.1-9.2c6.8,0,12.8,3.7,16.1,9.2"/>
				</g>
				<line class="st1" x1="45.6" y1="192.8" x2="45.6" y2="187.8"/>
				<line class="st1" x1="45.6" y1="178.1" x2="45.6" y2="173.1"/>
			</g>
		</g>
	</g>
	<line class="st1" x1="45.5" y1="6.6" x2="45.5" y2="1.6"/>
</g>
</svg>
