<?xml version="1.0" encoding="utf-8"?>
<!-- Generator: Adobe Illustrator 24.0.1, SVG Export Plug-In . SVG Version: 6.00 Build 0)  -->
<svg version="1.1" id="Layer_1" xmlns="http://www.w3.org/2000/svg" xmlns:xlink="http://www.w3.org/1999/xlink" x="0px" y="0px"
	 viewBox="0 0 76 161.6" style="enable-background:new 0 0 76 161.6;" xml:space="preserve">
<style type="text/css">
	.st0{fill:#EE732D;}
	.st1{fill:#F4BC33;}
	.st2{fill:#78AFAC;}
	.st3{fill:none;stroke:#B36407;stroke-width:2;stroke-miterlimit:10;}
</style>
<g>
	<rect x="8.6" y="6.4" class="st0" width="7.1" height="4.8"/>
	<rect x="59.6" y="6.7" class="st0" width="7.1" height="4.8"/>
	<polygon class="st1" points="27,16.2 37.8,11.1 48.7,16.2 37.8,21 	"/>
	<polygon class="st2" points="31.5,18.3 31.5,23.3 37.8,26.1 43.8,23.3 43.8,18.4 37.9,20.9 	"/>
	<polygon class="st2" points="31.5,28.8 31.5,33.9 37.8,36.6 43.8,33.9 43.8,28.9 37.9,31.4 	"/>
	<polygon class="st2" points="31.5,39.4 31.5,80.4 43.8,80.4 43.8,39.5 37.9,41.9 	"/>
	<polygon class="st1" points="25.6,21 37.8,26.1 49.7,21 49.7,26.4 37.8,31.3 25.6,26.1 	"/>
	<polygon class="st1" points="25.6,31.5 37.8,36.6 49.7,31.5 49.7,36.9 43.9,39.3 37.8,41.9 31.6,39.2 25.6,36.6 	"/>
	<polygon class="st1" points="25.9,36.9 31.4,39.3 31.4,80.4 25.6,80.4 	"/>
	<polygon class="st1" points="50,36.9 43.9,39.3 43.9,80.4 49.7,80.4 	"/>
	<polygon class="st2" points="50,21 59.6,16.9 59.6,22 50,26.1 	"/>
	<polygon class="st2" points="50,31.5 59.6,27.4 59.6,32.5 50,36.6 	"/>
	<polygon class="st2" points="25.6,21.2 16.1,17.1 16.1,22.2 25.6,26.3 	"/>
	<polygon class="st2" points="25.6,31.7 16.1,27.6 16.1,32.7 25.6,36.8 	"/>
	<polygon class="st2" points="37.8,80.4 32.4,85.5 37.8,89.6 43.3,85.5 	"/>
	<polygon class="st1" points="26.3,80.7 37.5,80.7 32,85.5 	"/>
	<polygon class="st1" points="38.2,80.7 49.4,80.7 43.3,85.5 	"/>
	<rect x="8.6" y="149.7" class="st0" width="7.1" height="5.1"/>
	<rect x="59.6" y="149.7" class="st0" width="7.5" height="5.1"/>
	<polygon class="st2" points="30.7,143.6 37.8,149.7 45,143.6 37.8,136.1 	"/>
	<polygon class="st1" points="24.9,149.7 30.7,143.6 37.8,149.7 	"/>
	<polygon class="st1" points="38.2,149.7 45.3,143.6 51.1,149.7 	"/>
</g>
<g>
	<g>
		<g>
			<rect x="1" y="1" class="st3" width="74" height="159.6"/>
			<line class="st3" x1="38" y1="0.7" x2="38" y2="160.3"/>
			<g>
				<line class="st3" x1="67" y1="0.7" x2="67" y2="160.3"/>
				<line class="st3" x1="9" y1="1" x2="9" y2="160.9"/>
			</g>
			<g>
				<line class="st3" x1="59.7" y1="1" x2="59.7" y2="160.6"/>
				<line class="st3" x1="16.3" y1="1.3" x2="16.3" y2="160.6"/>
				<polyline class="st3" points="25.9,31.6 25.9,80.6 37.8,89.4 				"/>
				<line class="st3" x1="25.9" y1="21.1" x2="25.9" y2="26.2"/>
			</g>
		</g>
		<g>
			<line class="st3" x1="74.8" y1="11.4" x2="0.8" y2="11.4"/>
			<g>
				<line class="st3" x1="75.2" y1="46.1" x2="1.2" y2="46.1"/>
				<line class="st3" x1="75" y1="80.6" x2="1" y2="80.6"/>
				<line class="st3" x1="75.2" y1="115.1" x2="1.2" y2="115.1"/>
			</g>
			<line class="st3" x1="74.8" y1="149.9" x2="0.8" y2="149.9"/>
		</g>
	</g>
	<g>
		<line class="st3" x1="75" y1="6.6" x2="1" y2="6.6"/>
		<line class="st3" x1="75" y1="155" x2="1" y2="155"/>
	</g>
	<polyline class="st3" points="50.1,31.7 50.1,80.6 38.2,89.4 	"/>
	<line class="st3" x1="50.1" y1="21" x2="50.1" y2="26.3"/>
	<line class="st3" x1="31.7" y1="18.5" x2="31.7" y2="80.8"/>
	<line class="st3" x1="43.9" y1="18.5" x2="43.9" y2="80.8"/>
	<g>
		<line class="st3" x1="16.4" y1="11.7" x2="37.8" y2="20.8"/>
		<line class="st3" x1="16.4" y1="16.9" x2="37.8" y2="26.1"/>
		<line class="st3" x1="16.4" y1="22.2" x2="37.8" y2="31.4"/>
		<line class="st3" x1="16.4" y1="27.5" x2="37.8" y2="36.6"/>
		<line class="st3" x1="16.4" y1="32.7" x2="37.8" y2="41.9"/>
	</g>
	<g>
		<line class="st3" x1="59.5" y1="11.7" x2="38.1" y2="20.8"/>
		<line class="st3" x1="59.5" y1="16.9" x2="38.1" y2="26.1"/>
		<line class="st3" x1="59.5" y1="22.2" x2="38.1" y2="31.4"/>
		<line class="st3" x1="59.5" y1="27.5" x2="38.1" y2="36.6"/>
		<line class="st3" x1="59.5" y1="32.7" x2="38.1" y2="41.9"/>
	</g>
	<line class="st3" x1="38.2" y1="11.3" x2="49" y2="16.1"/>
	<line class="st3" x1="26.9" y1="16.2" x2="37.7" y2="11.4"/>
	<line class="st3" x1="38.2" y1="80.6" x2="43.4" y2="85.5"/>
	<line class="st3" x1="37.8" y1="80.6" x2="32.5" y2="85.5"/>
	<line class="st3" x1="38.2" y1="136" x2="24.6" y2="149.9"/>
	<line class="st3" x1="37.9" y1="136" x2="51.5" y2="149.9"/>
	<line class="st3" x1="30.8" y1="143.7" x2="38" y2="149.9"/>
	<line class="st3" x1="45.3" y1="143.7" x2="38" y2="149.9"/>
</g>
</svg>
