<?xml version="1.0" encoding="utf-8"?>
<!-- Generator: Adobe Illustrator 24.0.1, SVG Export Plug-In . SVG Version: 6.00 Build 0)  -->
<svg version="1.1" id="Layer_1" xmlns="http://www.w3.org/2000/svg" xmlns:xlink="http://www.w3.org/1999/xlink" x="0px" y="0px"
	 viewBox="0 0 76 161.6" style="enable-background:new 0 0 76 161.6;" xml:space="preserve">
<style type="text/css">
	.st0{fill:none;stroke:#B36407;stroke-width:2;stroke-miterlimit:10;}
</style>
<g>
	<g>
		<g>
			<rect x="1" y="1" class="st0" width="74" height="159.6"/>
			<line class="st0" x1="38" y1="0.7" x2="38" y2="160.3"/>
			<g>
				<line class="st0" x1="67" y1="0.7" x2="67" y2="160.3"/>
				<line class="st0" x1="9" y1="1" x2="9" y2="160.9"/>
			</g>
			<g>
				<line class="st0" x1="59.7" y1="1" x2="59.7" y2="160.6"/>
				<line class="st0" x1="16.3" y1="1.3" x2="16.3" y2="160.6"/>
				<polyline class="st0" points="25.9,31.6 25.9,80.6 37.8,89.4 				"/>
				<line class="st0" x1="25.9" y1="21.1" x2="25.9" y2="26.2"/>
			</g>
		</g>
		<g>
			<line class="st0" x1="74.8" y1="11.4" x2="0.8" y2="11.4"/>
			<g>
				<line class="st0" x1="75.2" y1="46.1" x2="1.2" y2="46.1"/>
				<line class="st0" x1="75" y1="80.6" x2="1" y2="80.6"/>
				<line class="st0" x1="75.2" y1="115.1" x2="1.2" y2="115.1"/>
			</g>
			<line class="st0" x1="74.8" y1="149.9" x2="0.8" y2="149.9"/>
		</g>
	</g>
	<g>
		<line class="st0" x1="75" y1="6.6" x2="1" y2="6.6"/>
		<line class="st0" x1="75" y1="155" x2="1" y2="155"/>
	</g>
	<polyline class="st0" points="50.1,31.7 50.1,80.6 38.2,89.4 	"/>
	<line class="st0" x1="50.1" y1="21" x2="50.1" y2="26.3"/>
	<line class="st0" x1="31.7" y1="18.5" x2="31.7" y2="80.8"/>
	<line class="st0" x1="43.9" y1="18.5" x2="43.9" y2="80.8"/>
	<g>
		<line class="st0" x1="16.4" y1="11.7" x2="37.8" y2="20.8"/>
		<line class="st0" x1="16.4" y1="16.9" x2="37.8" y2="26.1"/>
		<line class="st0" x1="16.4" y1="22.2" x2="37.8" y2="31.4"/>
		<line class="st0" x1="16.4" y1="27.5" x2="37.8" y2="36.6"/>
		<line class="st0" x1="16.4" y1="32.7" x2="37.8" y2="41.9"/>
	</g>
	<g>
		<line class="st0" x1="59.5" y1="11.7" x2="38.1" y2="20.8"/>
		<line class="st0" x1="59.5" y1="16.9" x2="38.1" y2="26.1"/>
		<line class="st0" x1="59.5" y1="22.2" x2="38.1" y2="31.4"/>
		<line class="st0" x1="59.5" y1="27.5" x2="38.1" y2="36.6"/>
		<line class="st0" x1="59.5" y1="32.7" x2="38.1" y2="41.9"/>
	</g>
	<line class="st0" x1="38.2" y1="11.3" x2="49" y2="16.1"/>
	<line class="st0" x1="26.9" y1="16.2" x2="37.7" y2="11.4"/>
	<line class="st0" x1="38.2" y1="80.6" x2="43.4" y2="85.5"/>
	<line class="st0" x1="37.8" y1="80.6" x2="32.5" y2="85.5"/>
	<line class="st0" x1="38.2" y1="136" x2="24.6" y2="149.9"/>
	<line class="st0" x1="37.9" y1="136" x2="51.5" y2="149.9"/>
	<line class="st0" x1="30.8" y1="143.7" x2="38" y2="149.9"/>
	<line class="st0" x1="45.3" y1="143.7" x2="38" y2="149.9"/>
</g>
</svg>
