<?xml version="1.0" encoding="utf-8"?>
<!-- Generator: Adobe Illustrator 24.0.1, SVG Export Plug-In . SVG Version: 6.00 Build 0)  -->
<svg version="1.1" id="Layer_1" xmlns="http://www.w3.org/2000/svg" xmlns:xlink="http://www.w3.org/1999/xlink" x="0px" y="0px"
	 viewBox="0 0 91.8 195.7" style="enable-background:new 0 0 91.8 195.7;" xml:space="preserve">
<style type="text/css">
	.st0{fill:none;stroke:#3BC9F4;stroke-width:2;stroke-miterlimit:10;}
</style>
<g>
	<line class="st0" x1="90.9" y1="171.7" x2="1.1" y2="171.7"/>
	<line class="st0" x1="91" y1="165.5" x2="1.2" y2="165.5"/>
	<path class="st0" d="M15,160.5"/>
	<path class="st0" d="M46.4,129.1"/>
	<path class="st0" d="M61.4,35"/>
	<path class="st0" d="M31.3,35"/>
	<path class="st0" d="M31.5,0.5"/>
	<path class="st0" d="M60.3,1.3"/>
	<path class="st0" d="M46.3,1.6"/>
	<path class="st0" d="M46.3,6.6"/>
	<path class="st0" d="M1.2,25.8"/>
	<line class="st0" x1="28.4" y1="52.2" x2="61.1" y2="52.2"/>
	<line class="st0" x1="38.6" y1="112.8" x2="1" y2="112.8"/>
	<line class="st0" x1="90.8" y1="112.8" x2="52.9" y2="112.8"/>
	<line class="st0" x1="38.5" y1="138.7" x2="52.9" y2="138.7"/>
	<polyline class="st0" points="10.7,1.1 10.7,72.8 31.2,72.8 	"/>
	<polyline class="st0" points="80.7,1 80.7,72.8 60,72.8 	"/>
	<line class="st0" x1="31.3" y1="52.4" x2="31.3" y2="112.8"/>
	<line class="st0" x1="60.1" y1="51.6" x2="60.1" y2="112.8"/>
	<polyline class="st0" points="38.5,52.1 38.5,145.3 52.9,145.3 52.9,52.3 	"/>
	<line class="st0" x1="60.1" y1="25.7" x2="60.1" y2="32"/>
	<line class="st0" x1="30.8" y1="25.8" x2="30.8" y2="32"/>
	<g>
		<polyline class="st0" points="45.7,22.9 31.1,32 1,32 		"/>
		<polyline class="st0" points="45.7,22.9 60.2,32 90.9,32 		"/>
	</g>
	<g>
		<polyline class="st0" points="45.7,16.8 31.1,25.8 1,25.8 		"/>
		<polyline class="st0" points="45.7,16.8 60.2,25.8 90.8,25.8 		"/>
	</g>
	<line class="st0" x1="60.1" y1="45.9" x2="60.1" y2="52.2"/>
	<line class="st0" x1="31.2" y1="45.9" x2="31.2" y2="52.2"/>
	<g>
		<polyline class="st0" points="45.7,43.1 31.1,52.2 1,52.2 		"/>
		<polyline class="st0" points="45.7,43.1 60.2,52.2 90.8,52.2 		"/>
	</g>
	<g>
		<polyline class="st0" points="45.7,37 31.1,46 1,46 		"/>
		<polyline class="st0" points="45.7,37 60.2,46 90.8,46 		"/>
	</g>
	<g>
		<line class="st0" x1="34.6" y1="171.6" x2="34.6" y2="194.7"/>
		<line class="st0" x1="57.2" y1="171.7" x2="57.2" y2="194.8"/>
	</g>
	<line class="st0" x1="34.6" y1="191.1" x2="57.2" y2="191.1"/>
	<g>
		<polyline class="st0" points="52.5,171.6 45.9,178.2 39.3,171.6 		"/>
		<g>
			<g>
				<line class="st0" x1="45.9" y1="1.1" x2="45.9" y2="194.7"/>
				<rect x="1" y="1" class="st0" width="89.8" height="193.7"/>
			</g>
			<g>
				<line class="st0" x1="42.8" y1="175.2" x2="42.8" y2="194.6"/>
				<line class="st0" x1="49" y1="175.1" x2="49" y2="194.6"/>
			</g>
		</g>
	</g>
</g>
</svg>
