<?xml version="1.0" encoding="utf-8"?>
<!-- Generator: Adobe Illustrator 24.0.1, SVG Export Plug-In . SVG Version: 6.00 Build 0)  -->
<svg version="1.1" id="Layer_1" xmlns="http://www.w3.org/2000/svg" xmlns:xlink="http://www.w3.org/1999/xlink" x="0px" y="0px"
	 viewBox="0 0 91.7 195.3" style="enable-background:new 0 0 91.7 195.3;" xml:space="preserve">
<style type="text/css">
	.st0{fill:#FF603B;}
	.st1{fill:none;stroke:#555D60;stroke-width:2;stroke-miterlimit:10;}
</style>
<rect x="48.1" y="61.3" class="st0" width="0.9" height="0.1"/>
<g>
	<line class="st1" x1="90.8" y1="111.6" x2="1.1" y2="111.6"/>
	<rect x="1" y="1" class="st1" width="89.7" height="193.3"/>
	<line class="st1" x1="45.8" y1="0.6" x2="45.8" y2="193.9"/>
	<g>
		<line class="st1" x1="77.1" y1="0.6" x2="77.1" y2="193.9"/>
		<line class="st1" x1="14.5" y1="1" x2="14.5" y2="194.4"/>
	</g>
	<g>
		<line class="st1" x1="55.9" y1="1" x2="55.9" y2="194.3"/>
		<line class="st1" x1="35.7" y1="0.2" x2="35.7" y2="193.5"/>
	</g>
	<g>
		<line class="st1" x1="90.4" y1="13.5" x2="0.8" y2="13.5"/>
		<line class="st1" x1="90.4" y1="180.5" x2="0.8" y2="180.5"/>
	</g>
	<g>
		<line class="st1" x1="45.9" y1="128.9" x2="14.5" y2="160.3"/>
		<line class="st1" x1="45.6" y1="128.9" x2="76.9" y2="160.2"/>
	</g>
	<g>
		<g>
			<line class="st1" x1="46" y1="106.3" x2="14.6" y2="74.9"/>
			<line class="st1" x1="45.7" y1="106.3" x2="77" y2="75"/>
		</g>
		<g>
			<line class="st1" x1="46" y1="96" x2="35.5" y2="85.6"/>
			<line class="st1" x1="45.7" y1="96" x2="55.8" y2="86"/>
		</g>
		<g>
			<line class="st1" x1="46" y1="85.8" x2="14.6" y2="54.4"/>
			<line class="st1" x1="45.7" y1="85.8" x2="77" y2="54.5"/>
		</g>
		<g>
			<line class="st1" x1="46" y1="75.6" x2="35.7" y2="65.3"/>
			<line class="st1" x1="45.7" y1="75.6" x2="55.8" y2="65.5"/>
		</g>
		<g>
			<line class="st1" x1="46" y1="65.4" x2="14.6" y2="34"/>
			<line class="st1" x1="45.7" y1="65.4" x2="77" y2="34.1"/>
		</g>
		<g>
			<line class="st1" x1="46" y1="55.1" x2="35.8" y2="45"/>
			<line class="st1" x1="45.7" y1="55.1" x2="55.7" y2="45.2"/>
		</g>
		<g>
			<line class="st1" x1="46" y1="44.9" x2="14.6" y2="13.5"/>
			<line class="st1" x1="45.7" y1="44.9" x2="77" y2="13.6"/>
		</g>
		<g>
			<line class="st1" x1="46" y1="34.7" x2="35.8" y2="24.5"/>
			<line class="st1" x1="45.7" y1="34.7" x2="55.8" y2="24.7"/>
		</g>
	</g>
	<g>
		<g>
			<line class="st1" x1="46.1" y1="180.1" x2="35.8" y2="169.7"/>
			<line class="st1" x1="45.9" y1="180.1" x2="55.8" y2="170.2"/>
		</g>
		<g>
			<line class="st1" x1="46.1" y1="169.9" x2="35.9" y2="159.7"/>
			<line class="st1" x1="45.9" y1="169.9" x2="56" y2="159.7"/>
		</g>
		<g>
			<line class="st1" x1="46.1" y1="159.6" x2="35.7" y2="149.2"/>
			<line class="st1" x1="45.9" y1="159.6" x2="55.8" y2="149.7"/>
		</g>
	</g>
	<g>
		<line class="st1" x1="70.8" y1="154" x2="77.4" y2="154"/>
		<line class="st1" x1="14.3" y1="154" x2="20.8" y2="154"/>
	</g>
	<g>
		<line class="st1" x1="70.8" y1="81.2" x2="77.4" y2="81.2"/>
		<line class="st1" x1="14.3" y1="81.2" x2="20.8" y2="81.2"/>
	</g>
	<g>
		<line class="st1" x1="70.8" y1="60.6" x2="77.4" y2="60.6"/>
		<line class="st1" x1="14.3" y1="60.6" x2="20.8" y2="60.6"/>
	</g>
	<g>
		<line class="st1" x1="70.8" y1="40.1" x2="77.4" y2="40.1"/>
		<line class="st1" x1="14.3" y1="40.1" x2="20.8" y2="40.1"/>
	</g>
	<g>
		<line class="st1" x1="71.2" y1="19.5" x2="77.4" y2="19.5"/>
		<line class="st1" x1="14.3" y1="19.5" x2="20.8" y2="19.5"/>
	</g>
</g>
</svg>
